# xmcd CD database file
#
# Track frame offsets:
#	150
#	21910
#	41057
#
# Disc length: 836 seconds
#
# Revision: 0
# Processed by: cddbd v1.5PL3 Copyright (c) Steve Scherf et al.
# Submitted via: CDex 1.50beta9
#
DISCID=1f034203
DTITLE=前田亜季 - ごめんね
DYEAR=1999
DGENRE=JPop
TTITLE0=ごめんね
TTITLE1=内緒の気持ち
TTITLE2=ごめんね (Instrumental)
EXTD=YEAR: 1999
EXTT0=
EXTT1=
EXTT2=
PLAYORDER=
